<svg width="180" height="183" viewBox="0 0 180 183" fill="none" xmlns="http://www.w3.org/2000/svg">
<g clip-path="url(#clip0_1_1514)">
<path d="M89.7387 0C113.539 0 136.364 9.47713 153.193 26.3465C170.023 43.2159 179.477 66.0957 179.477 89.9527V93.2429C179.477 105.056 177.156 116.753 172.646 127.666C168.137 138.58 161.526 148.496 153.193 156.849C144.86 165.202 134.968 171.828 124.08 176.348C113.193 180.869 101.523 183.196 89.7387 183.196C65.9385 183.196 43.1131 173.718 26.2838 156.849C9.45458 139.98 0 117.1 0 93.2429L0 89.9527C0 66.0957 9.45458 43.2159 26.2838 26.3465C43.1131 9.47713 65.9385 0 89.7387 0Z" fill="#2676EE"/>
<mask id="mask0_1_1514" style="mask-type:luminance" maskUnits="userSpaceOnUse" x="0" y="0" width="180" height="184">
<path d="M89.7503 0C113.55 0 136.376 9.47713 153.205 26.3465C170.034 43.2159 179.489 66.0957 179.489 89.9527V93.2429C179.489 105.056 177.168 116.753 172.658 127.666C168.148 138.58 161.538 148.496 153.205 156.849C144.872 165.202 134.979 171.828 124.092 176.348C113.204 180.869 101.535 183.196 89.7503 183.196C65.9501 183.196 43.1247 173.718 26.2954 156.849C9.46618 139.98 0.0115967 117.1 0.0115967 93.2429V89.9527C0.0115967 66.0957 9.46618 43.2159 26.2954 26.3465C43.1247 9.47713 65.9501 0 89.7503 0Z" fill="white"/>
</mask>
<g mask="url(#mask0_1_1514)">
<path opacity="0.8" d="M168.463 65.2844C140.102 49.0295 114.978 62.4115 102.419 76.6611C89.8604 90.9108 80.4927 105.31 64.7367 107.947C48.9807 110.584 25.0315 103.885 7.20711 116.48C-10.6173 129.074 -10.5542 162.527 3.55744 181.488C17.6691 200.449 54.1887 209.527 96.3404 215.63C111.463 217.926 126.896 217.068 141.672 213.107L160.814 206.132C170.159 201.857 178.003 197.03 184.637 193.123C194.733 187.142 198.285 172.582 200.221 161.912C203.024 145.923 202.781 129.546 199.505 113.647C195.254 93.6113 185.6 75.104 168.463 65.2844Z" fill="#669DF0"/>
<path d="M117.66 32.2864C117.66 32.2864 132.976 26.8168 143.63 42.2959C154.284 57.775 149.882 66.0277 156.88 76.9971C163.878 87.9665 152.785 101.803 156.699 105.51C160.614 109.217 176.707 120.983 169.949 145.397C166.83 156.693 194.179 175.927 180.266 184.976C164.107 195.493 105.946 194.95 93.7799 194.382C74.8083 193.489 39.5753 188.677 31.7458 172.987C23.9162 157.296 21.3445 137.549 28.7645 127.521C36.1845 117.494 41.0147 113.703 34.9258 102.673C31.7759 96.9678 13.4005 77.8845 32.3721 67.3619C40.8822 62.6409 33.6489 43.1652 44.4959 33.361C56.4389 22.5606 62.7447 31.9845 72.1101 23.5507C82.7402 13.9577 114.137 7.28676 117.66 32.2864Z" fill="black"/>
<path d="M102.995 123.277H74.1277V161.045H102.995V123.277Z" fill="#EFB2A2"/>
<path d="M102.995 135.46V123.283H74.1217V141.485C83.0594 142.5 94.2617 139.028 102.995 135.46Z" fill="black"/>
<path d="M87.6306 132.436C117.444 132.436 141.612 109.761 141.612 81.7905C141.612 53.82 117.444 31.1454 87.6306 31.1454C57.8174 31.1454 33.6489 53.82 33.6489 81.7905C33.6489 109.761 57.8174 132.436 87.6306 132.436Z" fill="#EFB2A2"/>
<path d="M100.272 85.2679C100.272 85.2679 113.336 59.3084 133.602 78.8927C133.602 78.8927 122.105 106.742 100.272 85.2679Z" fill="white"/>
<path d="M81.3008 99.4671C81.2035 99.4664 81.1084 99.4376 81.027 99.384C80.9456 99.3305 80.8813 99.2546 80.8419 99.1654C80.8025 99.0761 80.7896 98.9774 80.8048 98.881C80.8199 98.7846 80.8625 98.6947 80.9274 98.6219L86.5286 92.3071C86.6221 92.2052 86.7519 92.1445 86.8899 92.1381C86.9586 92.1362 87.027 92.148 87.0912 92.1729C87.1553 92.1978 87.2138 92.2352 87.2633 92.283L92.9428 97.8794C92.9902 97.9261 93.028 97.9818 93.054 98.0432C93.08 98.1047 93.0937 98.1706 93.0942 98.2373C93.0948 98.304 93.0822 98.3702 93.0573 98.4321C93.0323 98.4939 92.9955 98.5502 92.9488 98.5978C92.9021 98.6453 92.8466 98.6832 92.7853 98.7093C92.724 98.7353 92.6582 98.749 92.5917 98.7496C92.5251 98.7501 92.4591 98.7376 92.3974 98.7126C92.3357 98.6875 92.2795 98.6506 92.2321 98.6038L86.9321 93.3817L81.6803 99.2981C81.6321 99.351 81.5735 99.3933 81.5082 99.4224C81.4429 99.4515 81.3723 99.4667 81.3008 99.4671Z" fill="black"/>
<path d="M125.363 66.5771C125.29 66.5791 125.217 66.5624 125.152 66.5288C114.865 61.6629 106.982 66.4503 106.903 66.5288C106.847 66.564 106.784 66.5878 106.718 66.5987C106.652 66.6096 106.585 66.6074 106.52 66.5923C106.456 66.5772 106.394 66.5494 106.34 66.5105C106.286 66.4716 106.24 66.4224 106.205 66.3658C106.17 66.3091 106.146 66.246 106.135 66.1801C106.124 66.1143 106.126 66.0469 106.141 65.9818C106.156 65.9168 106.184 65.8554 106.223 65.8011C106.262 65.7468 106.311 65.7007 106.367 65.6655C106.705 65.4542 114.799 60.5279 125.58 65.6353C125.684 65.6844 125.768 65.7677 125.819 65.8713C125.869 65.975 125.883 66.0928 125.858 66.2054C125.833 66.318 125.77 66.4185 125.68 66.4905C125.59 66.5625 125.478 66.6015 125.363 66.6012V66.5771Z" fill="black"/>
<path d="M73.1641 66.7944C73.0609 66.7934 72.9603 66.7619 72.875 66.7038C72.8027 66.6495 65.0816 61.4274 54.3912 65.7137C54.2679 65.7573 54.1326 65.7513 54.0136 65.6971C53.8946 65.6428 53.8012 65.5445 53.7529 65.4228C53.7047 65.301 53.7053 65.1652 53.7546 65.0439C53.804 64.9226 53.8983 64.8251 54.0178 64.772C65.2261 60.2743 73.1219 65.6413 73.4531 65.8767C73.5076 65.9142 73.554 65.9621 73.5899 66.0177C73.6257 66.0732 73.6502 66.1354 73.662 66.2005C73.6737 66.2656 73.6725 66.3324 73.6584 66.397C73.6442 66.4617 73.6175 66.5228 73.5796 66.577C73.5338 66.6449 73.4717 66.7003 73.3992 66.7383C73.3267 66.7762 73.2459 66.7955 73.1641 66.7944Z" fill="black"/>
<path d="M33.673 89.9044C33.5557 89.9049 33.442 89.8641 33.3517 89.789C33.2614 89.714 33.2003 89.6095 33.1792 89.4939C32.1312 83.8854 23.6813 80.728 23.591 80.6978C23.4648 80.6514 23.3622 80.5566 23.3057 80.4343C23.2492 80.3121 23.2435 80.1723 23.2898 80.0458C23.3362 79.9193 23.4307 79.8165 23.5527 79.7598C23.6747 79.7032 23.8141 79.6975 23.9403 79.744C24.3077 79.8768 33.0226 83.1308 34.1789 89.3067C34.1921 89.3729 34.1921 89.4411 34.1789 89.5073C34.1657 89.5735 34.1396 89.6364 34.1021 89.6925C34.0647 89.7486 34.0165 89.7967 33.9604 89.8341C33.9044 89.8715 33.8415 89.8974 33.7754 89.9104L33.673 89.9044Z" fill="black"/>
<path d="M25.7049 93.2308C25.6248 93.2311 25.5457 93.212 25.4744 93.1753C25.4031 93.1385 25.3417 93.0851 25.2954 93.0195C25.2174 92.9105 25.1857 92.775 25.2071 92.6427C25.2286 92.5103 25.3014 92.3918 25.4098 92.3132L32.6371 87.1092C32.7465 87.0317 32.8822 87.0008 33.0143 87.0235C33.1464 87.0461 33.2642 87.1204 33.3417 87.2299C33.4197 87.3389 33.4515 87.4744 33.43 87.6068C33.4086 87.7392 33.3357 87.8576 33.2273 87.9363L26 93.1402C25.9128 93.1991 25.8101 93.2306 25.7049 93.2308Z" fill="black"/>
<path d="M76.2417 85.5879C76.2417 85.5879 62.4677 60.0027 42.7493 80.1545C42.7493 80.1424 55.0055 107.666 76.2417 85.5879Z" fill="white"/>
<path d="M133.602 78.8927C125.484 71.0445 118.545 70.5132 113.089 72.6926C111.595 74.1097 110.467 75.8695 109.803 77.8204C109.138 79.7713 108.957 81.8549 109.274 83.8918C109.591 85.9287 110.397 87.8578 111.623 89.5131C112.849 91.1684 114.458 92.5002 116.311 93.3938C127.694 93.2006 133.602 78.8927 133.602 78.8927Z" fill="black"/>
<path d="M76.2958 85.5697C76.2958 85.5697 68.3097 70.7849 55.8185 72.5779C54.1705 74.1045 52.9555 76.0416 52.2974 78.192C51.6392 80.3424 51.5614 82.6292 52.0719 84.8196C52.5824 87.0099 53.6629 89.0255 55.2034 90.6611C56.7439 92.2966 58.6893 93.4937 60.8415 94.1303C65.2682 93.9915 70.4417 91.6732 76.2958 85.5697Z" fill="black"/>
<path d="M110.619 103.186C99.8373 105.726 89.4608 109.759 79.7891 115.17C79.7891 115.17 101.025 120.048 110.619 103.186Z" fill="#430400"/>
<path d="M87.6246 31.1454C57.8121 31.1454 32.9322 50.9651 33.6429 81.7966C33.6429 82.7987 43.7852 73.4835 49.0069 67.1023C54.2286 60.7211 53.8251 45.7068 75.3624 53.9897C96.8996 62.2726 110.391 42 110.391 42C112.571 55.1126 120.4 54.8892 129.724 60.9626C139.047 67.0359 141.636 78.4218 138.378 89.5904C137.077 94.0398 135.337 107.774 136.445 110.859C140.48 103.766 141.606 90.3994 141.606 81.7966C141.606 53.8207 117.437 31.1454 87.6246 31.1454Z" fill="black"/>
<path d="M102.995 148.265H74.1277V161.045L3.1438 169.63L4.09539 182.984L180.26 184.976L182.778 164.481L102.995 161.045V148.265Z" fill="#EE26C2"/>
<path d="M157.223 85.2618L155.525 100.91C155.32 102.802 154.746 104.634 153.834 106.303C152.923 107.972 151.692 109.445 150.213 110.638C148.734 111.83 147.035 112.719 145.213 113.253C143.391 113.787 141.482 113.956 139.595 113.751L138.191 113.6C136.915 113.46 135.745 112.819 134.939 111.816C134.133 110.814 133.756 109.532 133.891 108.251L137.866 71.5335C137.912 71.1161 138.048 70.7135 138.263 70.3531C138.478 69.9926 138.768 69.6828 139.113 69.4447C139.591 69.1021 140.164 68.9184 140.751 68.9194C140.861 68.9134 140.972 68.9134 141.082 68.9194C139.233 57.939 133.81 47.881 125.659 40.3147C117.508 32.7484 107.087 28.0993 96.0233 27.0929C84.9595 26.0864 73.8744 28.7792 64.4977 34.7511C55.1209 40.7229 47.9799 49.638 44.1887 60.1053C39.5803 68.2076 37.2116 77.3957 37.327 86.7217C37.4424 96.0476 40.0377 105.174 44.8452 113.159L39.5392 113.733C37.6521 113.938 35.7431 113.769 33.9212 113.235C32.0993 112.701 30.4002 111.812 28.921 110.619C27.4417 109.427 26.2113 107.954 25.2998 106.285C24.3884 104.616 23.8139 102.784 23.6091 100.892L21.9106 85.2437C21.7058 83.3516 21.8749 81.4376 22.4082 79.6111C22.9415 77.7845 23.8285 76.0811 25.0187 74.5983C26.2089 73.1154 27.6788 71.8821 29.3446 70.9688C31.0104 70.0556 32.8394 69.4802 34.727 69.2756L35.4919 69.1911C37.8463 55.9502 44.797 43.9708 55.1143 35.3723C65.4317 26.7738 78.4506 22.1105 91.8678 22.2073C105.285 22.3042 118.236 27.155 128.428 35.9015C138.621 44.6481 145.399 56.7266 147.563 70.0001C150.66 71.0701 153.303 73.163 155.058 75.9359C156.813 78.7088 157.577 81.9971 157.223 85.2618Z" fill="#EE26C2"/>
<path d="M116.425 130.594C110.469 130.594 103.681 129.17 96.1167 126.32L97.6585 122.197C110.758 127.129 121.069 127.497 128.302 123.302C136.132 118.75 137.625 110.123 137.643 110.02L141.98 110.708C141.914 111.143 140.209 121.424 130.573 127.063C126.562 129.417 121.834 130.594 116.425 130.594Z" fill="#EE26C2"/>
<path d="M95.1771 129.073L90.4553 127.232C89.2161 126.748 88.2193 125.79 87.684 124.57C87.1487 123.35 87.1187 121.966 87.6006 120.724C87.839 120.108 88.1961 119.546 88.6516 119.069C89.107 118.592 89.6518 118.209 90.2549 117.944C90.8579 117.678 91.5073 117.534 92.1659 117.52C92.8245 117.506 93.4794 117.622 94.0931 117.862L98.8149 119.703C99.429 119.942 99.99 120.3 100.466 120.757C100.942 121.214 101.323 121.76 101.588 122.364C101.854 122.969 101.997 123.619 102.011 124.28C102.025 124.94 101.909 125.596 101.67 126.211C101.431 126.827 101.074 127.389 100.619 127.866C100.163 128.344 99.6184 128.726 99.0153 128.992C98.4123 129.257 97.7629 129.401 97.1043 129.415C96.4457 129.429 95.7908 129.313 95.1771 129.073Z" fill="black"/>
</g>
</g>
<defs>
<clipPath id="clip0_1_1514">
<rect width="180" height="183" fill="white"/>
</clipPath>
</defs>
</svg>
