<svg width="209" height="30" viewBox="0 0 209 30" fill="none" xmlns="http://www.w3.org/2000/svg">
<path d="M5.10291 8.14778V18.3536H10.2058C10.9052 18.3536 11.563 18.2232 12.1794 17.9624C12.7958 17.6898 13.3351 17.3224 13.7974 16.8601C14.2597 16.3978 14.6212 15.8585 14.882 15.2421C15.1546 14.6138 15.291 13.95 15.291 13.2507C15.291 12.5513 15.1546 11.8935 14.882 11.2771C14.6212 10.6489 14.2597 10.1036 13.7974 9.64132C13.3351 9.17903 12.7958 8.8175 12.1794 8.55673C11.563 8.2841 10.9052 8.14778 10.2058 8.14778H5.10291ZM5.10291 28.5416H0V3.04487H10.2058C11.1422 3.04487 12.0431 3.16933 12.9084 3.41825C13.7737 3.65532 14.5797 3.99907 15.3265 4.4495C16.0851 4.88808 16.7726 5.42149 17.389 6.04972C18.0172 6.6661 18.5507 7.3536 18.9892 8.11222C19.4397 8.87084 19.7834 9.6828 20.0205 10.5481C20.2694 11.4134 20.3939 12.3143 20.3939 13.2507C20.3939 14.6494 20.1272 15.9711 19.5938 17.2157C19.0603 18.4484 18.3314 19.5271 17.4068 20.4517C16.4822 21.3762 15.3976 22.1052 14.153 22.6386C12.9203 23.172 11.6045 23.4387 10.2058 23.4387H5.10291V28.5416Z" fill="#C3C3C3"/>
<path d="M28.6083 4.32504C28.6083 4.77547 28.5194 5.19627 28.3416 5.58744C28.1757 5.9786 27.9445 6.32235 27.6482 6.61869C27.3518 6.90317 27.0022 7.13431 26.5991 7.31211C26.208 7.47806 25.7872 7.56104 25.3368 7.56104C24.8863 7.56104 24.4596 7.47806 24.0566 7.31211C23.6654 7.13431 23.3217 6.90317 23.0253 6.61869C22.7408 6.32235 22.5097 5.9786 22.3319 5.58744C22.166 5.19627 22.083 4.77547 22.083 4.32504C22.083 3.88647 22.166 3.47159 22.3319 3.08043C22.5097 2.67741 22.7408 2.33366 23.0253 2.04918C23.3217 1.75284 23.6654 1.5217 24.0566 1.35575C24.4596 1.17795 24.8863 1.08905 25.3368 1.08905C25.7872 1.08905 26.208 1.17795 26.5991 1.35575C27.0022 1.5217 27.3518 1.75284 27.6482 2.04918C27.9445 2.33366 28.1757 2.67741 28.3416 3.08043C28.5194 3.47159 28.6083 3.88647 28.6083 4.32504ZM27.7726 28.5416H22.8831V9.49908H27.7726V28.5416Z" fill="#C3C3C3"/>
<path d="M36.3427 28.5416H31.4887V9.49908H32.6622L34.2624 11.3482C35.0447 10.637 35.9278 10.0917 36.9116 9.71244C37.9073 9.32127 38.9445 9.12569 40.0232 9.12569C41.1848 9.12569 42.2813 9.35091 43.3125 9.80134C44.3438 10.2399 45.2446 10.8504 46.0151 11.6327C46.7856 12.4032 47.3901 13.31 47.8287 14.3531C48.2791 15.3843 48.5043 16.4867 48.5043 17.6602V28.5416H43.6503V17.6602C43.6503 17.1623 43.5555 16.6941 43.3658 16.2555C43.1762 15.8051 42.9154 15.4139 42.5835 15.0821C42.2516 14.7502 41.8664 14.4894 41.4278 14.2997C40.9892 14.1101 40.521 14.0152 40.0232 14.0152C39.5135 14.0152 39.0334 14.1101 38.583 14.2997C38.1326 14.4894 37.7414 14.7502 37.4095 15.0821C37.0776 15.4139 36.8168 15.8051 36.6272 16.2555C36.4375 16.6941 36.3427 17.1623 36.3427 17.6602V28.5416Z" fill="#C3C3C3"/>
<path d="M56.861 28.5416H51.9715V1.92472H56.861V18.7092L64.0975 9.53464H69.6805L63.3685 17.4646L69.6805 28.5416H64.0975L60.2392 21.6252L56.861 26.1058V28.5416Z" fill="#C3C3C3"/>
<path fill-rule="evenodd" clip-rule="evenodd" d="M94.8798 3.74022C94.3844 3.37964 93.8633 3.05072 93.3193 2.75646C90.6091 1.29043 87.4905 0.772057 84.4579 1.27717C84.402 1.28622 84.3461 1.29562 84.2902 1.30539C83.1323 1.50336 82.0118 1.84755 80.9287 2.33794C79.8455 2.82833 78.8396 3.4469 77.911 4.19365C76.9982 4.93319 76.1786 5.79369 75.4522 6.77516C74.7374 7.76099 74.1576 8.84398 73.7131 10.0241C73.2686 11.2042 72.9897 12.4005 72.8764 13.613C72.7792 14.8183 72.8273 16.0056 73.0209 17.1751C73.2305 18.3374 73.5804 19.4601 74.0708 20.5433C74.1392 20.6943 74.21 20.8439 74.2832 20.9919C74.7438 21.9385 75.3139 22.8356 75.9866 23.6636C78.0062 26.1497 80.8254 27.8586 83.9638 28.4991C87.1022 29.1396 90.3655 28.6721 93.1979 27.1762C96.0302 25.6804 98.2563 23.2487 99.4967 20.2956L94.5339 18.211C93.724 20.134 92.2163 21.7263 90.2747 22.6198L90.2575 22.5286C89.5485 22.8678 88.7802 23.1136 87.9656 23.2479C86.904 23.4228 85.856 23.3931 84.8618 23.1876C81.6055 22.4484 78.9607 19.8076 78.3842 16.3098C77.6244 11.6993 80.7459 7.34575 85.3565 6.58587C88.0383 6.14387 90.6332 7.01515 92.4845 8.72887C93.3609 9.57194 94.0624 10.6072 94.5161 11.7826L100.167 9.67227L100.194 9.7437C100.995 8.85574 101.849 7.82476 102.727 6.7372C100.988 6.63749 99.3384 6.56997 97.9405 6.60516C98.3225 5.16084 98.6432 3.36221 98.9491 1.44732C97.4519 2.23652 96.0422 3.00802 94.8798 3.74022Z" fill="#C3C3C3"/>
<path d="M109.592 28.4198H104.69V1.55322H109.592V10.0421C110.178 9.59942 110.783 9.28834 111.405 9.10887C112.028 8.91744 112.662 8.82172 113.309 8.82172C114.494 8.82172 115.607 9.04905 116.649 9.50371C117.69 9.9464 118.594 10.5626 119.36 11.3522C120.138 12.1299 120.749 13.0452 121.192 14.0981C121.647 15.139 121.874 16.2517 121.874 17.4362V28.4198H116.936V17.4362H116.972C116.972 16.9337 116.876 16.4611 116.685 16.0184C116.493 15.5638 116.23 15.1689 115.895 14.8339C115.559 14.4989 115.17 14.2357 114.727 14.0443C114.284 13.8528 113.812 13.7571 113.309 13.7571C112.794 13.7571 112.309 13.8528 111.854 14.0443C111.399 14.2357 111.004 14.4989 110.669 14.8339C110.334 15.1689 110.071 15.5638 109.879 16.0184C109.688 16.4611 109.592 16.9337 109.592 17.4362V28.4198Z" fill="#C3C3C3"/>
<path d="M131.158 3.97606C131.158 4.43071 131.068 4.85545 130.888 5.25029C130.721 5.64512 130.487 5.99209 130.188 6.29121C129.889 6.57836 129.536 6.81167 129.129 6.99114C128.734 7.15864 128.309 7.24239 127.854 7.24239C127.399 7.24239 126.968 7.15864 126.561 6.99114C126.166 6.81167 125.819 6.57836 125.519 6.29121C125.232 5.99209 124.999 5.64512 124.819 5.25029C124.651 4.85545 124.568 4.43071 124.568 3.97606C124.568 3.53337 124.651 3.1146 124.819 2.71977C124.999 2.31297 125.232 1.966 125.519 1.67885C125.819 1.37973 126.166 1.14643 126.561 0.978921C126.968 0.799451 127.399 0.709717 127.854 0.709717C128.309 0.709717 128.734 0.799451 129.129 0.978921C129.536 1.14643 129.889 1.37973 130.188 1.67885C130.487 1.966 130.721 2.31297 130.888 2.71977C131.068 3.1146 131.158 3.53337 131.158 3.97606ZM130.314 28.4198H125.376V9.19861H130.314V28.4198Z" fill="#C3C3C3"/>
<path d="M150.874 13.0213L147.283 16.6286C147.103 16.1261 146.858 15.6774 146.547 15.2826C146.235 14.8758 145.882 14.5348 145.487 14.2596C145.104 13.9845 144.685 13.7751 144.23 13.6315C143.775 13.4879 143.308 13.4161 142.83 13.4161C142.159 13.4161 141.525 13.5537 140.926 13.8289C140.34 14.1041 139.825 14.4929 139.382 14.9955C138.951 15.486 138.61 16.0723 138.358 16.7543C138.107 17.4362 137.981 18.19 137.981 19.0156C137.981 19.6856 138.107 20.3137 138.358 20.9C138.61 21.4863 138.951 22.0007 139.382 22.4434C139.825 22.8861 140.34 23.2331 140.926 23.4844C141.525 23.7356 142.159 23.8612 142.83 23.8612C143.308 23.8612 143.769 23.7954 144.212 23.6638C144.655 23.5322 145.068 23.3468 145.451 23.1075C145.846 22.8562 146.193 22.5571 146.493 22.2101C146.804 21.8512 147.055 21.4564 147.247 21.0256L150.838 24.633C150.383 25.279 149.857 25.8593 149.258 26.3738C148.671 26.8883 148.031 27.325 147.337 27.6839C146.654 28.0429 145.93 28.3121 145.164 28.4915C144.41 28.683 143.632 28.7787 142.83 28.7787C141.477 28.7787 140.202 28.5274 139.005 28.0249C137.82 27.5104 136.778 26.8105 135.88 25.9251C134.994 25.0398 134.294 24.0048 133.779 22.8203C133.265 21.6358 133.007 20.3676 133.007 19.0156C133.007 17.5439 133.265 16.168 133.779 14.8878C134.294 13.6076 134.994 12.4949 135.88 11.5497C136.778 10.5925 137.82 9.83871 139.005 9.28834C140.202 8.73797 141.477 8.46278 142.83 8.46278C143.632 8.46278 144.416 8.56448 145.182 8.76788C145.96 8.97128 146.696 9.2704 147.391 9.66523C148.097 10.0481 148.743 10.5207 149.33 11.083C149.928 11.6454 150.443 12.2915 150.874 13.0213Z" fill="#C3C3C3"/>
<path d="M158.218 28.4198H153.28V1.55322H158.218V18.4951L165.527 9.2345H171.165L164.791 17.2388L171.165 28.4198H165.527L161.63 21.4384L158.218 25.961V28.4198Z" fill="#C3C3C3"/>
<path d="M180.144 23.7177C180.335 23.7775 180.527 23.8194 180.718 23.8433C180.91 23.8553 181.101 23.8612 181.293 23.8612C181.772 23.8612 182.233 23.7954 182.675 23.6638C183.118 23.5322 183.531 23.3468 183.914 23.1075C184.31 22.8562 184.657 22.5571 184.956 22.2101C185.267 21.8512 185.519 21.4564 185.71 21.0256L189.301 24.633C188.847 25.279 188.32 25.8593 187.721 26.3738C187.135 26.8883 186.494 27.325 185.8 27.6839C185.118 28.0429 184.393 28.3121 183.627 28.4915C182.873 28.683 182.095 28.7787 181.293 28.7787C179.94 28.7787 178.665 28.5274 177.468 28.0249C176.283 27.5224 175.241 26.8225 174.344 25.9251C173.458 25.0278 172.757 23.9629 172.243 22.7306C171.728 21.4863 171.47 20.1223 171.47 18.6387C171.47 17.1192 171.728 15.7313 172.243 14.475C172.757 13.2187 173.458 12.1479 174.344 11.2625C175.241 10.3771 176.283 9.68916 177.468 9.19861C178.665 8.70806 179.94 8.46278 181.293 8.46278C182.095 8.46278 182.879 8.5585 183.645 8.74994C184.411 8.94137 185.136 9.21655 185.818 9.57549C186.512 9.93443 187.159 10.3771 187.757 10.9036C188.356 11.418 188.882 11.9983 189.337 12.6444L180.144 23.7177ZM182.658 13.6135C182.43 13.5298 182.203 13.476 181.975 13.452C181.76 13.4281 181.532 13.4161 181.293 13.4161C180.622 13.4161 179.988 13.5418 179.389 13.793C178.803 14.0323 178.288 14.3793 177.845 14.8339C177.414 15.2886 177.073 15.839 176.822 16.4851C176.57 17.1192 176.444 17.8371 176.444 18.6387C176.444 18.8182 176.45 19.0216 176.462 19.2489C176.486 19.4762 176.516 19.7095 176.552 19.9488C176.6 20.1761 176.654 20.3975 176.714 20.6128C176.774 20.8282 176.852 21.0196 176.947 21.1871L182.658 13.6135Z" fill="#C3C3C3"/>
<path d="M196.718 28.4198H191.815V9.19861H193.001L194.617 11.0651C195.407 10.3472 196.299 9.79684 197.292 9.41397C198.298 9.01914 199.345 8.82172 200.435 8.82172C201.608 8.82172 202.715 9.04905 203.757 9.50371C204.798 9.9464 205.708 10.5626 206.486 11.3522C207.264 12.1299 207.875 13.0452 208.318 14.0981C208.773 15.139 209 16.2517 209 17.4362V28.4198H204.098V17.4362C204.098 16.9337 204.002 16.4611 203.81 16.0184C203.619 15.5638 203.356 15.1689 203.02 14.8339C202.685 14.4989 202.296 14.2357 201.853 14.0443C201.41 13.8528 200.937 13.7571 200.435 13.7571C199.92 13.7571 199.435 13.8528 198.98 14.0443C198.525 14.2357 198.13 14.4989 197.795 14.8339C197.46 15.1689 197.196 15.5638 197.005 16.0184C196.813 16.4611 196.718 16.9337 196.718 17.4362V28.4198Z" fill="#C3C3C3"/>
</svg>
