<svg width="248" height="304" viewBox="0 0 248 304" fill="none" xmlns="http://www.w3.org/2000/svg">
<circle cx="58.5733" cy="6.29299" r="6.29299" fill="#669DF0"/>
<circle cx="34.3694" cy="111.822" r="4.35669" fill="#2676EE"/>
<circle cx="205.732" cy="84.7136" r="8.2293" fill="#2676EE"/>
<line x1="102.656" y1="59.0893" x2="102.656" y2="70.6434" stroke="black" stroke-width="2" stroke-linecap="round"/>
<line x1="102.656" y1="82.3253" x2="102.656" y2="93.8794" stroke="black" stroke-width="2" stroke-linecap="round"/>
<line x1="120.019" y1="76.5159" x2="108.465" y2="76.5159" stroke="black" stroke-width="2" stroke-linecap="round"/>
<line x1="96.7834" y1="76.5159" x2="85.2293" y2="76.5159" stroke="black" stroke-width="2" stroke-linecap="round"/>
<line x1="153" y1="1" x2="153" y2="12.5541" stroke="black" stroke-width="2" stroke-linecap="round"/>
<line x1="153" y1="24.2354" x2="153" y2="35.7896" stroke="black" stroke-width="2" stroke-linecap="round"/>
<line x1="170.363" y1="18.4266" x2="158.809" y2="18.4266" stroke="black" stroke-width="2" stroke-linecap="round"/>
<line x1="147.127" y1="18.4266" x2="135.573" y2="18.4266" stroke="black" stroke-width="2" stroke-linecap="round"/>
<ellipse cx="128.764" cy="280.28" rx="95.8471" ry="23.7197" fill="#F4D4ED"/>
<g clip-path="url(#clip0_1_1476)">
<path d="M192.891 200.863L62.3028 216.083C61.8874 216.13 61.47 216.011 61.1423 215.75C60.8145 215.49 60.6033 215.11 60.5549 214.694L51.854 140.364C51.8297 140.159 51.8462 139.95 51.9024 139.751C51.9587 139.552 52.0536 139.366 52.1817 139.203C52.3099 139.041 52.4688 138.905 52.6493 138.805C52.8299 138.704 53.0285 138.64 53.2339 138.616L55.7082 138.327C56.0219 138.291 56.3175 138.162 56.5563 137.955C56.7952 137.748 56.966 137.474 57.0465 137.168L58.7398 130.848C58.7898 130.651 58.8795 130.466 59.0036 130.304C59.5997 129.57 60.4586 129.098 61.3974 128.989L94.3165 125.156C95.0544 125.068 95.8017 125.21 96.4571 125.561C96.6342 125.664 96.789 125.802 96.9119 125.966L101.602 132.201C101.767 132.422 101.987 132.595 102.24 132.704C102.493 132.812 102.77 132.852 103.044 132.819L183.826 123.411C184.241 123.363 184.658 123.481 184.987 123.74C185.315 123.999 185.528 124.378 185.577 124.794L194.277 199.119C194.323 199.534 194.204 199.951 193.944 200.278C193.684 200.605 193.306 200.816 192.891 200.863Z" fill="black" stroke="black" stroke-miterlimit="10"/>
<path d="M194.135 200.156L69.5969 233.526C69.2353 233.623 68.8582 233.648 68.487 233.599C68.1158 233.549 67.7578 233.428 67.4335 233.24C67.1092 233.052 66.8249 232.802 66.5969 232.505C66.3688 232.207 66.2015 231.868 66.1044 231.505L47.3956 161.683C47.1995 160.951 47.3016 160.172 47.6793 159.516C48.057 158.86 48.6794 158.382 49.4096 158.187L49.7477 158.096C50.2986 157.947 50.7924 157.637 51.166 157.205C51.5395 156.773 51.7757 156.239 51.8442 155.672L52.4604 150.387C52.5246 149.779 52.7872 149.21 53.2075 148.767C53.6621 148.302 54.2323 147.968 54.8592 147.798L86.8694 139.221C87.2995 139.105 87.7471 139.069 88.1903 139.114C88.8095 139.19 89.385 139.474 89.8235 139.918L94.5715 144.607C94.9256 144.957 95.365 145.209 95.846 145.337C96.3269 145.464 96.8328 145.464 97.3132 145.335L173.944 124.802C174.674 124.606 175.452 124.709 176.107 125.088C176.762 125.467 177.24 126.091 177.436 126.823L196.149 196.66C196.246 197.022 196.271 197.4 196.222 197.772C196.174 198.144 196.052 198.502 195.865 198.827C195.678 199.151 195.429 199.436 195.132 199.664C194.835 199.892 194.496 200.06 194.135 200.156Z" fill="#EE26C2"/>
<mask id="mask0_1_1476" style="mask-type:luminance" maskUnits="userSpaceOnUse" x="47" y="124" width="150" height="110">
<path d="M194.135 200.156L69.5969 233.526C69.2353 233.623 68.8582 233.648 68.487 233.599C68.1158 233.549 67.7578 233.428 67.4335 233.24C67.1092 233.052 66.8249 232.802 66.5969 232.505C66.3688 232.207 66.2015 231.868 66.1044 231.505L47.3956 161.683C47.1995 160.951 47.3016 160.172 47.6793 159.516C48.057 158.86 48.6794 158.382 49.4096 158.187L49.7477 158.096C50.2986 157.947 50.7924 157.637 51.166 157.205C51.5395 156.773 51.7757 156.239 51.8442 155.672L52.4604 150.387C52.5246 149.779 52.7872 149.21 53.2075 148.767C53.6621 148.302 54.2323 147.968 54.8592 147.798L86.8694 139.221C87.2995 139.105 87.7471 139.069 88.1903 139.114C88.8095 139.19 89.385 139.474 89.8235 139.918L94.5715 144.607C94.9256 144.957 95.365 145.209 95.846 145.337C96.3269 145.464 96.8328 145.464 97.3132 145.335L173.944 124.802C174.674 124.606 175.452 124.709 176.107 125.088C176.762 125.467 177.24 126.091 177.436 126.823L196.149 196.66C196.246 197.022 196.271 197.4 196.222 197.772C196.174 198.144 196.052 198.502 195.865 198.827C195.678 199.151 195.429 199.436 195.132 199.664C194.835 199.892 194.496 200.06 194.135 200.156Z" fill="white"/>
</mask>
<g mask="url(#mask0_1_1476)">
<path opacity="0.1" d="M194.135 200.156L69.5969 233.526C69.2353 233.623 68.8582 233.648 68.487 233.599C68.1158 233.549 67.7578 233.428 67.4335 233.24C67.1092 233.052 66.8249 232.802 66.5969 232.505C66.3688 232.207 66.2015 231.868 66.1044 231.505L47.3956 161.683C47.1995 160.951 47.3016 160.172 47.6793 159.516C48.057 158.86 48.6794 158.382 49.4096 158.187L49.7477 158.096C50.2986 157.947 50.7924 157.637 51.166 157.205C51.5395 156.773 51.7757 156.239 51.8442 155.672L52.4604 150.387C52.5246 149.779 52.7872 149.21 53.2075 148.767C53.6621 148.302 54.2323 147.968 54.8592 147.798L86.8694 139.221C87.2995 139.105 87.7471 139.069 88.1903 139.114C88.8095 139.19 89.385 139.474 89.8235 139.918L94.5715 144.607C94.9256 144.957 95.365 145.209 95.846 145.337C96.3269 145.464 96.8328 145.464 97.3132 145.335L173.944 124.802C174.674 124.606 175.452 124.709 176.107 125.088C176.762 125.467 177.24 126.091 177.436 126.823L196.149 196.66C196.246 197.022 196.271 197.4 196.222 197.772C196.174 198.144 196.052 198.502 195.865 198.827C195.678 199.151 195.429 199.436 195.132 199.664C194.835 199.892 194.496 200.06 194.135 200.156Z" fill="black"/>
</g>
<path d="M194.135 200.156L69.5969 233.526C69.2353 233.623 68.8582 233.648 68.487 233.599C68.1158 233.549 67.7578 233.428 67.4335 233.24C67.1092 233.052 66.8249 232.802 66.5969 232.505C66.3688 232.207 66.2015 231.868 66.1044 231.505L47.3956 161.683C47.1995 160.951 47.3016 160.172 47.6793 159.516C48.057 158.86 48.6794 158.382 49.4096 158.187L49.7477 158.096C50.2986 157.947 50.7924 157.637 51.166 157.205C51.5395 156.773 51.7757 156.239 51.8442 155.672L52.4604 150.387C52.5246 149.779 52.7872 149.21 53.2075 148.767C53.6621 148.302 54.2323 147.968 54.8592 147.798L86.8694 139.221C87.2995 139.105 87.7471 139.069 88.1903 139.114C88.8095 139.19 89.385 139.474 89.8235 139.918L94.5715 144.607C94.9256 144.957 95.365 145.209 95.846 145.337C96.3269 145.464 96.8328 145.464 97.3132 145.335L173.944 124.802C174.674 124.606 175.452 124.709 176.107 125.088C176.762 125.467 177.24 126.091 177.436 126.823L196.149 196.66C196.246 197.022 196.271 197.4 196.222 197.772C196.174 198.144 196.052 198.502 195.865 198.827C195.678 199.151 195.429 199.436 195.132 199.664C194.835 199.892 194.496 200.06 194.135 200.156Z" stroke="black" stroke-miterlimit="10"/>
<path d="M81.7829 149.26L61.8537 154.6C61.3782 154.727 60.8714 154.66 60.4449 154.413C60.0183 154.166 59.707 153.76 59.5793 153.283C59.5153 153.047 59.4985 152.801 59.5297 152.558C59.561 152.316 59.6397 152.082 59.7615 151.87C59.8832 151.658 60.0455 151.472 60.2391 151.323C60.4327 151.174 60.6537 151.065 60.8896 151.001L80.8188 145.661C81.2957 145.534 81.8038 145.601 82.2315 145.848C82.6593 146.096 82.9715 146.503 83.0995 146.981C83.1628 147.218 83.179 147.464 83.1471 147.707C83.1151 147.949 83.0358 148.183 82.9135 148.395C82.7912 148.606 82.6283 148.792 82.4343 148.94C82.2404 149.088 82.019 149.197 81.7829 149.26Z" fill="black"/>
<path d="M197.399 212.34L72.8614 245.71C72.1312 245.906 71.353 245.802 70.6981 245.423C70.0431 245.044 69.565 244.421 69.369 243.689L50.6601 173.867C50.4641 173.135 50.5661 172.355 50.9439 171.7C51.3216 171.044 51.944 170.566 52.6742 170.37L53.0122 170.28C53.5635 170.131 54.0577 169.821 54.4313 169.389C54.8049 168.957 55.0409 168.423 55.1088 167.855L55.7262 162.576C55.789 161.968 56.0518 161.397 56.4734 160.955C56.9266 160.489 57.4973 160.154 58.1251 159.987L90.1353 151.409C90.5654 151.294 91.013 151.258 91.4562 151.303C92.0768 151.379 92.6533 151.664 93.0906 152.112L97.84 156.805C98.1941 157.156 98.6335 157.407 99.1145 157.535C99.5954 157.663 100.101 157.662 100.582 157.533L177.212 137C177.942 136.805 178.721 136.908 179.376 137.287C180.031 137.666 180.509 138.29 180.705 139.021L199.414 208.844C199.61 209.575 199.507 210.355 199.13 211.01C198.752 211.666 198.13 212.144 197.399 212.34Z" fill="black" stroke="black" stroke-miterlimit="10"/>
<path d="M87.4734 132.304L67.0433 135.147C66.5549 135.214 66.0599 135.084 65.6664 134.786C65.2728 134.489 65.0126 134.047 64.9425 133.558C64.8755 133.069 65.0053 132.572 65.3035 132.179C65.6018 131.785 66.0439 131.526 66.5329 131.459L86.9581 128.617C87.4467 128.549 87.9423 128.678 88.3362 128.976C88.7301 129.274 88.99 129.716 89.0588 130.206C89.0926 130.448 89.0783 130.695 89.0169 130.931C88.9554 131.168 88.848 131.39 88.7007 131.585C88.5535 131.779 88.3693 131.943 88.1587 132.067C87.9481 132.19 87.7152 132.271 87.4734 132.304Z" fill="#EE26C2"/>
<path opacity="0.5" d="M87.4734 132.304L67.0433 135.147C66.5549 135.214 66.0599 135.084 65.6664 134.786C65.2728 134.489 65.0126 134.047 64.9425 133.558C64.8755 133.069 65.0053 132.572 65.3035 132.179C65.6018 131.785 66.0439 131.526 66.5329 131.459L86.9581 128.617C87.4467 128.549 87.9423 128.678 88.3362 128.976C88.7301 129.274 88.99 129.716 89.0588 130.206C89.0926 130.448 89.0783 130.695 89.0169 130.931C88.9554 131.168 88.848 131.39 88.7007 131.585C88.5535 131.779 88.3693 131.943 88.1587 132.067C87.9481 132.19 87.7152 132.271 87.4734 132.304Z" fill="white"/>
<path d="M85.0488 161.448L65.1196 166.788C64.8837 166.851 64.6376 166.867 64.3955 166.835C64.1534 166.803 63.9199 166.723 63.7085 166.6C63.4971 166.478 63.3119 166.314 63.1635 166.12C63.0151 165.925 62.9065 165.704 62.8438 165.467C62.716 164.99 62.7822 164.482 63.0278 164.054C63.2734 163.626 63.6785 163.314 64.1541 163.185L84.0834 157.845C84.5602 157.717 85.0684 157.785 85.4961 158.032C85.9238 158.28 86.236 158.687 86.364 159.165C86.492 159.643 86.4254 160.152 86.1787 160.58C85.9321 161.008 85.5256 161.32 85.0488 161.448Z" fill="#EE26C2"/>
<path opacity="0.5" d="M85.0488 161.448L65.1196 166.788C64.8837 166.851 64.6376 166.867 64.3955 166.835C64.1534 166.803 63.9199 166.723 63.7085 166.6C63.4971 166.478 63.3119 166.314 63.1635 166.12C63.0151 165.925 62.9065 165.704 62.8438 165.467C62.716 164.99 62.7822 164.482 63.0278 164.054C63.2734 163.626 63.6785 163.314 64.1541 163.185L84.0834 157.845C84.5602 157.717 85.0684 157.785 85.4961 158.032C85.9238 158.28 86.236 158.687 86.364 159.165C86.492 159.643 86.4254 160.152 86.1787 160.58C85.9321 161.008 85.5256 161.32 85.0488 161.448Z" fill="white"/>
<path d="M186.91 156.909L54.2251 192.462C52.7992 192.844 51.9536 194.312 52.3365 195.741L73.8929 276.19C74.2757 277.619 75.742 278.468 77.1679 278.086L209.853 242.533C211.279 242.151 212.124 240.683 211.742 239.254L190.185 158.804C189.802 157.376 188.336 156.527 186.91 156.909Z" fill="#2676EE"/>
<path d="M186.91 156.909L54.2251 192.462C52.7992 192.844 51.9536 194.312 52.3365 195.741L73.8929 276.19C74.2757 277.619 75.742 278.468 77.1679 278.086L209.853 242.533C211.279 242.151 212.124 240.683 211.742 239.254L190.185 158.804C189.802 157.376 188.336 156.527 186.91 156.909Z" stroke="black" stroke-miterlimit="10"/>
<path d="M149.454 200.501L108.464 211.485C107.725 211.683 107.287 212.443 107.486 213.183L113.101 234.139C113.299 234.879 114.059 235.318 114.797 235.12L155.787 224.137C156.526 223.939 156.964 223.179 156.766 222.439L151.151 201.483C150.952 200.743 150.193 200.303 149.454 200.501Z" fill="black" stroke="black" stroke-miterlimit="10"/>
<path d="M149.454 200.501L108.464 211.485C107.725 211.683 107.287 212.443 107.486 213.183L108.693 217.689C108.891 218.429 109.651 218.869 110.39 218.671L151.38 207.688C152.118 207.49 152.556 206.729 152.358 205.989L151.151 201.483C150.952 200.743 150.193 200.303 149.454 200.501Z" fill="white" stroke="black" stroke-miterlimit="10"/>
<path d="M74.7786 127.94L77.9153 128.457C77.9153 128.457 78.1964 127.703 77.4921 127.602L76.4014 127.216" fill="white"/>
<path d="M74.7786 127.94L77.9153 128.457C77.9153 128.457 78.1964 127.703 77.4921 127.602L76.4014 127.216" stroke="black" stroke-linejoin="round"/>
</g>
<defs>
<clipPath id="clip0_1_1476">
<rect width="215.528" height="152.631" fill="white" transform="translate(0 145.136) rotate(-15)"/>
</clipPath>
</defs>
</svg>
